<svg width="48" height="48" viewBox="0 0 48 48" xmlns="http://www.w3.org/2000/svg">
  <rect x="2" y="2" width="44" height="44" rx="10" fill="#EE2B8B"/>
  <g stroke="#0a0612" stroke-width="1.6" stroke-linejoin="round">
    <path d="M14 18 Q14 12, 19 11 Q24 10, 29 11 Q34 12, 34 18 L34 26 Q34 30, 31 32 L31 35 Q31 37, 29 37 L19 37 Q17 37, 17 35 L17 32 Q14 30, 14 26 Z" fill="#FFF6E0"/>
    <ellipse cx="20" cy="22" rx="3.5" ry="4" fill="#5BD800"/>
    <ellipse cx="28" cy="22" rx="3.5" ry="4" fill="#5BD800"/>
    <path d="M23 21 L26 21 L24.5 25 L27 25 L22 31 L23.5 27 L21 27 Z" fill="#FFD400" stroke-width="0.9"/>
    <line x1="20" y1="33" x2="20" y2="36.5"/>
    <line x1="22.5" y1="33" x2="22.5" y2="36.5"/>
    <line x1="25.5" y1="33" x2="25.5" y2="36.5"/>
    <line x1="28" y1="33" x2="28" y2="36.5"/>
  </g>
</svg>
